HIERARCHY
ROOT Hips
{
	OFFSET 0.000000 0.000000 0.000000
	CHANNELS 6 Xposition Yposition Zposition Zrotation Yrotation Xrotation 
	JOINT LowerBack
	{
		OFFSET 0.000000 0.000000 0.000000
		CHANNELS 3 Zrotation Yrotation Xrotation
		JOINT Spine
		{
			OFFSET 0.028270 2.035590 -0.193380
			CHANNELS 3 Zrotation Yrotation Xrotation
			JOINT Spine1
			{
				OFFSET 0.056720 2.048850 -0.042750
				CHANNELS 3 Zrotation Yrotation Xrotation
				JOINT Neck
				{
					OFFSET 0.000000 0.000000 0.000000
					CHANNELS 3 Zrotation Yrotation Xrotation
					JOINT Neck1
					{
						OFFSET -0.054170 1.746240 0.172020
						CHANNELS 3 Zrotation Yrotation Xrotation
						JOINT Head
						{
							OFFSET 0.104070 1.761360 -0.123970
							CHANNELS 3 Zrotation Yrotation Xrotation
							End Site
							{
								OFFSET 0.000000 0.000000 0.000000
							}
						}
					}
				}
				JOINT LeftShoulder
				{
					OFFSET 0.000000 0.000000 0.000000
					CHANNELS 3 Zrotation Yrotation Xrotation
					JOINT LeftArm
					{
						OFFSET 3.362410 1.200890 -0.311210
						CHANNELS 3 Zrotation Yrotation Xrotation
						JOINT LeftForeArm
						{
							OFFSET 4.983000 -0.000000 -0.000000
							CHANNELS 3 Zrotation Yrotation Xrotation
							JOINT LeftHand
							{
								OFFSET 3.483560 -0.000000 -0.000000
								CHANNELS 3 Zrotation Yrotation Xrotation
								JOINT LeftFingerBase
								{
									OFFSET 0.000000 0.000000 0.000000
									CHANNELS 3 Zrotation Yrotation Xrotation
									JOINT LeftHandIndex1
									{
										OFFSET 0.715260 -0.000000 -0.000000
										CHANNELS 3 Zrotation Yrotation Xrotation
										End Site
										{
											OFFSET 0.000000 0.000000 0.000000
										}
									}
								}
								JOINT LThumb
								{
									OFFSET 0.000000 0.000000 0.000000
									CHANNELS 3 Zrotation Yrotation Xrotation
									End Site
									{
										OFFSET 0.000000 0.000000 0.000000
									}
								}
							}
						}
					}
				}
				JOINT RightShoulder
				{
					OFFSET 0.000000 0.000000 0.000000
					CHANNELS 3 Zrotation Yrotation Xrotation
					JOINT RightArm
					{
						OFFSET -3.136600 1.374050 -0.404650
						CHANNELS 3 Zrotation Yrotation Xrotation
						JOINT RightForeArm
						{
							OFFSET -5.241900 -0.000000 -0.000000
							CHANNELS 3 Zrotation Yrotation Xrotation
							JOINT RightHand
							{
								OFFSET -3.444170 -0.000000 -0.000000
								CHANNELS 3 Zrotation Yrotation Xrotation
								JOINT RightFingerBase
								{
									OFFSET 0.000000 0.000000 0.000000
									CHANNELS 3 Zrotation Yrotation Xrotation
									JOINT RightHandIndex1
									{
										OFFSET -0.622530 -0.000000 -0.000000
										CHANNELS 3 Zrotation Yrotation Xrotation
										End Site
										{
											OFFSET 0.000000 0.000000 0.000000
										}
									}
								}
								JOINT RThumb
								{
									OFFSET 0.000000 0.000000 0.000000
									CHANNELS 3 Zrotation Yrotation Xrotation
									End Site
									{
										OFFSET 0.000000 0.000000 0.000000
									}
								}
							}
						}
					}
				}
			}
		}
	}
}
}
MOTION
Frames: 17
Frame Time: 0.008333
10.010262 17.076088 2.265668 -3.382461 -82.879552 9.867982 -1.072234 -1.789787 -4.895189 -0.927665 -1.902855 -3.335491 -6.148680 -1.927223 1.776397 11.418274 -12.860390 -7.308253 -2.921627 -0.234280 0.141679 0.000000 0.000000 0.000000 11.529283 14.301312 -3.611033 -54.866563 -17.446374 -32.607943 178.645462 -70.520989 179.645598 41.799570 -15.281617 -6.280546 -0.692590 0.853020 -0.000000 0.000000 0.000000 0.000000 0.000000 0.000000 0.000000 8.784679 -11.414843 -2.434688 50.569073 4.039184 -43.709790 -179.304777 71.362777 179.825890 -37.271549 31.623239 -11.298207 0.406628 -0.763842 -0.000000 0.000000 0.000000 0.000000 0.000000 0.000000 0.000000 
9.909334 16.783861 2.234149 -2.871665 -83.032012 9.670201 -1.189492 -1.928412 -4.751180 -0.974456 -2.033541 -3.353996 -6.376770 -2.053747 1.558491 11.570590 -12.284897 -7.375391 -3.055658 -0.242999 0.119881 0.000000 0.000000 0.000000 10.845227 13.902363 -3.295583 -55.474311 -16.706910 -32.273871 178.813240 -71.890557 179.657569 42.148832 -14.454448 -5.989603 -0.687804 0.808692 -0.000000 0.000000 0.000000 0.000000 0.000000 0.000000 0.000000 9.531934 -10.661317 -2.320115 52.538487 3.806514 -42.170990 -179.401899 73.146214 179.832958 -37.197736 31.505599 -11.216225 0.391548 -0.733485 -0.000000 0.000000 0.000000 0.000000 0.000000 0.000000 0.000000 
9.809613 16.495545 2.195152 -1.356955 -83.038494 8.460308 -1.449135 -2.117631 -4.557025 -1.043212 -2.201499 -3.359276 -6.587841 -2.219636 1.344577 11.725258 -11.763498 -7.449432 -3.168716 -0.249742 0.094752 0.000000 0.000000 0.000000 10.226479 13.509023 -2.983942 -56.090542 -15.975674 -31.849537 178.955441 -73.386751 179.668143 42.511667 -13.389358 -5.598767 -0.680136 0.761284 -0.000000 0.000000 0.000000 0.000000 0.000000 0.000000 0.000000 10.224846 -9.999784 -2.204062 54.695956 3.539826 -40.580789 -179.485137 75.133841 179.839274 -37.132511 31.244401 -11.084170 0.375549 -0.700888 -0.000000 0.000000 0.000000 0.000000 0.000000 0.000000 0.000000 
9.710373 16.218046 2.149977 0.971306 -82.902325 6.402236 -1.830418 -2.346342 -4.302629 -1.130711 -2.396713 -3.348408 -6.780605 -2.414159 1.138632 11.885003 -11.314629 -7.532567 -3.266742 -0.254963 0.065553 0.000000 0.000000 0.000000 9.646402 13.112089 -2.678858 -56.725120 -15.251718 -31.303210 179.078111 -75.003287 179.677828 42.857444 -12.079916 -5.099224 -0.669479 0.711057 0.000000 0.000000 0.000000 0.000000 0.000000 0.000000 0.000000 10.902687 -9.446238 -2.085192 56.968434 3.252212 -38.950771 -179.558011 77.351709 179.845287 -37.054799 30.827071 -10.891149 0.358648 -0.665697 -0.000000 0.000000 0.000000 0.000000 0.000000 0.000000 0.000000 
9.611063 15.957984 2.100796 3.696863 -82.641000 3.907451 -2.287575 -2.597799 -3.998961 -1.228772 -2.606305 -3.321948 -6.953190 -2.623638 0.950340 12.047752 -10.961109 -7.632016 -3.354438 -0.259002 0.030477 0.000000 0.000000 0.000000 9.063224 12.722088 -2.383695 -57.387258 -14.555579 -30.605864 179.187744 -76.743945 179.687316 43.150065 -10.539593 -4.491260 -0.655538 0.658414 0.000000 0.000000 0.000000 0.000000 0.000000 0.000000 0.000000 11.596915 -9.019879 -1.963020 59.271914 2.981112 -37.291433 -179.624599 79.836526 179.851458 -36.937656 30.256119 -10.630971 0.340795 -0.627842 0.000000 0.000000 0.000000 0.000000 0.000000 0.000000 0.000000 
9.511334 15.721076 2.050046 6.399617 -82.285446 1.403918 -2.769393 -2.853100 -3.667461 -1.328231 -2.816326 -3.283971 -7.104810 -2.833722 0.785816 12.209474 -10.707310 -7.750493 -3.436789 -0.262299 -0.010872 0.000000 0.000000 0.000000 8.439894 12.343533 -2.099140 -58.083824 -13.898823 -29.747060 179.289571 -78.610931 179.697385 43.349785 -8.801724 -3.786065 -0.637969 0.603969 0.000000 0.000000 0.000000 0.000000 0.000000 0.000000 0.000000 12.331199 -8.718638 -1.835128 61.517691 2.750072 -35.623052 -179.687856 82.618697 179.858208 -36.754900 29.536030 -10.299142 0.322061 -0.587428 0.000000 0.000000 0.000000 0.000000 0.000000 0.000000 0.000000 
9.411212 15.511719 2.000066 8.780883 -81.877560 -0.800563 -3.228500 -3.094175 -3.332258 -1.420857 -3.013585 -3.241466 -7.236648 -3.031409 0.642575 12.365062 -10.530196 -7.880994 -3.519421 -0.265472 -0.056151 0.000000 0.000000 0.000000 7.753649 11.962963 -1.821987 -58.817970 -13.267249 -28.743312 179.386311 -80.601533 179.708774 43.419232 -6.918702 -3.006625 -0.616445 0.548531 0.000000 0.000000 0.000000 0.000000 0.000000 0.000000 0.000000 13.119500 -8.510549 -1.697147 63.622151 2.555248 -33.981607 -179.748320 85.710348 179.865795 -36.483888 28.669885 -9.893457 0.302604 -0.544820 0.000000 0.000000 0.000000 0.000000 0.000000 0.000000 0.000000 
9.310661 15.332660 1.952643 10.719961 -81.464055 -2.574418 -3.630503 -3.305693 -3.015159 -1.500609 -3.186369 -3.199199 -7.349487 -3.205162 0.524517 12.509126 -10.419485 -8.023120 -3.603549 -0.268699 -0.104835 0.000000 0.000000 0.000000 6.992369 11.596604 -1.552244 -59.595002 -12.679468 -27.607674 179.478160 -82.741876 179.721893 43.330748 -4.973485 -2.192833 -0.590570 0.493513 0.000000 0.000000 0.000000 0.000000 0.000000 0.000000 0.000000 13.958812 -8.379539 -1.548708 65.526360 2.423893 -32.387990 -179.804153 89.131645 179.874237 -36.099875 27.675897 -9.418116 0.282491 -0.500890 0.000000 0.000000 0.000000 0.000000 0.000000 0.000000 0.000000 
9.209959 15.185217 1.909073 12.208677 -81.091335 -3.906109 -3.952717 -3.475379 -2.731792 -1.564291 -3.324695 -3.163148 -7.446638 -3.345501 0.424605 12.636614 -10.334548 -8.164522 -3.691756 -0.272391 -0.153247 0.000000 0.000000 0.000000 6.162779 11.237152 -1.286317 -60.414309 -12.119923 -26.378803 179.562484 -85.050293 179.736975 43.070227 -3.062037 -1.392882 -0.560256 0.440346 0.000000 0.000000 0.000000 0.000000 0.000000 0.000000 0.000000 14.839392 -8.276490 -1.387813 67.184485 2.342529 -30.878079 0.149134 87.129347 -0.116659 -35.586807 26.564524 -8.878606 0.261946 -0.456685 0.000000 0.000000 0.000000 0.000000 0.000000 0.000000 0.000000 
9.109256 15.069287 1.870055 13.302870 -80.800197 -4.848662 -4.183165 -3.595097 -2.492949 -1.610141 -3.421439 -3.134667 -7.529178 -3.445245 0.348511 12.742097 -10.266933 -8.307023 -3.780991 -0.276328 -0.201660 0.000000 0.000000 0.000000 5.277263 10.920248 -1.026734 -61.276987 -11.622359 -25.078127 179.634827 -87.579782 179.753855 42.643116 -1.298486 -0.662164 -0.525655 0.390744 0.000000 0.000000 0.000000 0.000000 0.000000 0.000000 0.000000 15.735394 -8.188769 -1.218367 68.581551 2.346320 -29.456717 0.117063 83.071103 -0.107238 -34.930756 25.363115 -8.287919 0.241221 -0.413583 0.000000 0.000000 0.000000 0.000000 0.000000 0.000000 0.000000 
9.008753 14.983720 1.835795 14.064148 -80.621785 -5.466155 -4.317469 -3.659856 -2.304424 -1.638676 -3.471895 -3.117981 -7.601357 -3.500100 0.284924 12.820859 -10.165092 -8.433658 -3.872754 -0.280849 -0.245353 0.000000 0.000000 0.000000 4.364065 10.632609 -0.770035 -62.173604 -11.158067 -23.758587 -0.310768 -89.646586 -0.227658 42.072809 0.220940 -0.044969 -0.487334 0.345646 0.000000 0.000000 0.000000 0.000000 0.000000 0.000000 0.000000 16.624899 -8.057123 -1.040407 69.709228 2.398205 -28.153001 0.105192 78.747239 -0.097928 -34.129933 24.080561 -7.656738 0.220753 -0.372780 0.000000 0.000000 0.000000 0.000000 0.000000 0.000000 0.000000 
8.908429 14.926466 1.805978 14.560433 -80.576680 -5.825791 -4.359837 -3.668653 -2.170146 -1.651635 -3.474668 -3.115108 -7.665642 -3.508850 0.228256 12.868876 -9.993801 -8.533737 -3.966449 -0.286039 -0.281369 0.000000 0.000000 0.000000 3.457426 10.374195 -0.515580 -63.095922 -10.714051 -22.464190 -0.280022 -86.596314 -0.207934 41.399607 1.415252 0.426015 -0.445999 0.305563 0.000000 0.000000 0.000000 0.000000 0.000000 0.000000 0.000000 17.482277 -7.842012 -0.856901 70.580425 2.473721 -26.978199 0.117290 74.219684 -0.089105 -33.190442 22.732853 -6.999752 0.201020 -0.335347 0.000000 0.000000 0.000000 0.000000 0.000000 0.000000 0.000000 
8.808200 14.894771 1.779874 14.846604 -80.673192 -5.980627 -4.318606 -3.624562 -2.091058 -1.650493 -3.432096 -3.123115 -7.720576 -3.473287 0.188986 12.883061 -9.765334 -8.615558 -4.056691 -0.291378 -0.311900 0.000000 0.000000 0.000000 2.586523 10.184598 -0.268744 -64.036545 -10.331113 -21.210383 -0.277396 -83.213828 -0.187494 40.675824 2.226300 0.733395 -0.402505 0.270585 0.000000 0.000000 0.000000 0.000000 0.000000 0.000000 0.000000 18.276565 -7.556250 -0.675978 71.229651 2.604835 -25.904970 0.155740 69.530472 -0.080977 -32.127817 21.355611 -6.338749 0.182625 -0.302102 0.000000 0.000000 0.000000 0.000000 0.000000 0.000000 0.000000 
8.708031 14.885715 1.756420 14.973436 -80.907668 -5.982132 -4.210243 -3.533078 -2.066798 -1.639263 -3.348629 -3.144091 -7.768554 -3.398186 0.155745 12.863364 -9.439999 -8.663163 -4.145737 -0.297215 -0.332608 0.000000 0.000000 0.000000 1.792621 10.033188 -0.026435 -64.979592 -9.967315 -20.045974 -0.305118 -79.496998 -0.166643 39.955817 2.645834 0.883380 -0.357526 0.239760 0.000000 0.000000 0.000000 0.000000 0.000000 0.000000 0.000000 18.995911 -7.158651 -0.500003 71.686947 2.729457 -24.942505 0.219653 64.790848 -0.073679 -30.972873 19.961431 -5.689223 0.166044 -0.273278 0.000000 0.000000 0.000000 0.000000 0.000000 0.000000 0.000000 
8.607608 14.896304 1.734316 14.996858 -81.265369 -5.881333 -4.055352 -3.402925 -2.095814 -1.621829 -3.231653 -3.176594 -7.809114 -3.290738 0.129791 12.811926 -9.018669 -8.675897 -4.232650 -0.303473 -0.343270 0.000000 0.000000 0.000000 1.107985 9.916269 0.210402 -65.910452 -9.620580 -18.994336 -0.362620 -75.436412 -0.145749 39.290459 2.697694 0.895075 -0.311587 0.211959 0.000000 0.000000 0.000000 0.000000 0.000000 0.000000 0.000000 19.629463 -6.653626 -0.334601 71.995355 2.832054 -24.072448 0.306413 60.093432 -0.067184 -29.767242 18.580325 -5.070770 0.151668 -0.248755 0.000000 0.000000 0.000000 0.000000 0.000000 0.000000 0.000000 
8.506655 14.923564 1.712201 14.972535 -81.723941 -5.729974 -3.875120 -3.245622 -2.173568 -1.601319 -3.091156 -3.215113 -7.840101 -3.160031 0.125767 12.734410 -8.544188 -8.670472 -4.313475 -0.309645 -0.348361 0.000000 0.000000 0.000000 0.548798 9.867331 0.436659 -66.812446 -9.342756 -18.045218 -0.447934 -71.009737 -0.125230 38.722376 2.434947 0.796183 -0.265169 0.186084 0.000000 0.000000 0.000000 0.000000 0.000000 0.000000 0.000000 20.169823 -6.090462 -0.188625 72.203725 2.949120 -23.255400 0.413287 55.502895 -0.061324 -28.563325 17.259290 -4.504788 0.139839 -0.228098 -0.000000 0.000000 0.000000 0.000000 0.000000 0.000000 0.000000 
8.405129 14.965035 1.688752 14.980491 -82.253130 -5.608078 -3.696557 -3.073042 -2.294992 -1.582959 -2.937086 -3.260422 -7.863695 -3.016229 0.132933 12.638200 -8.004642 -8.636290 -4.391902 -0.316129 -0.344955 0.000000 0.000000 0.000000 0.135302 9.838721 0.656026 -67.663420 -9.086691 -17.228567 -0.555860 -66.267452 -0.105371 38.274754 1.956602 0.627107 -0.218286 0.160924 0.000000 0.000000 0.000000 0.000000 0.000000 0.000000 0.000000 20.626973 -5.461838 -0.062913 72.349544 3.026373 -22.496717 0.532959 51.141300 -0.056071 -27.422386 16.018409 -4.002580 0.130427 -0.210609 -0.000000 0.000000 0.000000 0.000000 0.000000 0.000000 0.000000 
